<?xml version="1.0" encoding="utf-8"?>
<!-- Generator: Adobe Illustrator 17.1.0, SVG Export Plug-In . SVG Version: 6.00 Build 0)  -->
<!DOCTYPE svg PUBLIC "-//W3C//DTD SVG 1.1//EN" "http://www.w3.org/Graphics/SVG/1.1/DTD/svg11.dtd">
<svg version="1.1" id="Layer_1" xmlns="http://www.w3.org/2000/svg" xmlns:xlink="http://www.w3.org/1999/xlink" x="0px" y="0px"
	 viewBox="0 0 72 72" enable-background="new 0 0 72 72" xml:space="preserve">
<g>
	<g>
		<path d="M35.715,5.86c16.8,0,30.468,13.668,30.468,30.468S52.516,66.796,35.715,66.796S5.247,53.128,5.247,36.328
			S18.915,5.86,35.715,5.86 M35.715,2.043c-18.935,0-34.285,15.35-34.285,34.285s15.35,34.285,34.285,34.285S70,55.263,70,36.328
			S54.65,2.043,35.715,2.043L35.715,2.043z"/>
	</g>
	
		<ellipse fill="none" stroke="#FFFFFF" stroke-width="1.4311" stroke-miterlimit="10" cx="35.715" cy="36.515" rx="31.666" ry="31.853"/>
	<g>
		<defs>
			<circle id="SVGID_3_" cx="35.715" cy="36.328" r="30.571"/>
		</defs>
		<clipPath id="SVGID_1_">
			<use xlink:href="#SVGID_3_"  overflow="visible"/>
		</clipPath>
		<path clip-path="url(#SVGID_1_)" fill="#282828" d="M35.97,7.95c0,0-0.125-0.396-0.242-0.399
			c-0.119-0.003-0.267,0.394-0.267,0.394l-0.15,7.32l-4.686,0.018l0,4.152l-5.053-0.009v50.244l-2.342-1.074V32.621H11v37.674
			l49.412-0.668V25.067H47.835V68.5l-2.203,0.493V19.344l-4.693-0.01l-0.035-4.077l-4.785,0.038L35.97,7.95z"/>
		<g clip-path="url(#SVGID_1_)">
			<polyline fill="#FFFFFF" points="29.372,28.581 34.551,28.581 34.551,23.728 29.372,23.728 			"/>
			<polyline fill="#FFFFFF" points="29.372,34.596 34.551,34.596 34.551,29.743 29.372,29.743 			"/>
			<polyline fill="#FFFFFF" points="29.372,40.61 34.551,40.61 34.551,35.757 29.372,35.757 			"/>
			<polyline fill="#FFFFFF" points="29.372,46.625 34.551,46.625 34.551,41.772 29.372,41.772 			"/>
			<polyline fill="#FFFFFF" points="29.372,52.639 34.551,52.639 34.551,47.786 29.372,47.786 			"/>
			<polyline fill="#FFFFFF" points="29.372,58.654 34.551,58.654 34.551,53.801 29.372,53.801 			"/>
			<polyline fill="#FFFFFF" points="36.826,28.581 42.005,28.581 42.005,23.728 36.826,23.728 			"/>
			<polyline fill="#FFFFFF" points="36.826,34.596 42.005,34.596 42.005,29.743 36.826,29.743 			"/>
			<polyline fill="#FFFFFF" points="36.826,40.61 42.005,40.61 42.005,35.757 36.826,35.757 			"/>
			<polyline fill="#FFFFFF" points="36.826,46.625 42.005,46.625 42.005,41.772 36.826,41.772 			"/>
			<polyline fill="#FFFFFF" points="36.826,52.639 42.005,52.639 42.005,47.786 36.826,47.786 			"/>
			<polyline fill="#FFFFFF" points="36.826,58.654 42.005,58.654 42.005,53.801 36.826,53.801 			"/>
			<polyline fill="#FFFFFF" points="29.426,64.791 34.605,64.791 34.605,59.938 29.426,59.938 			"/>
			<polyline fill="#FFFFFF" points="29.426,70.805 34.605,70.805 34.605,65.952 29.426,65.952 			"/>
			<polyline fill="#FFFFFF" points="36.879,64.791 42.058,64.791 42.058,59.938 36.879,59.938 			"/>
			<polyline fill="#FFFFFF" points="36.879,70.805 42.058,70.805 42.058,65.952 36.879,65.952 			"/>
		</g>
		<g clip-path="url(#SVGID_1_)">
			<polyline fill="#FFFFFF" points="50.459,30.747 53.664,30.747 53.664,27.743 50.459,27.743 			"/>
			<polyline fill="#FFFFFF" points="50.459,34.469 53.664,34.469 53.664,31.466 50.459,31.466 			"/>
			<polyline fill="#FFFFFF" points="50.459,38.192 53.664,38.192 53.664,35.188 50.459,35.188 			"/>
			<polyline fill="#FFFFFF" points="50.459,41.914 53.664,41.914 53.664,38.91 50.459,38.91 			"/>
			<polyline fill="#FFFFFF" points="50.459,45.636 53.664,45.636 53.664,42.633 50.459,42.633 			"/>
			<polyline fill="#FFFFFF" points="50.459,49.359 53.664,49.359 53.664,46.355 50.459,46.355 			"/>
			<polyline fill="#FFFFFF" points="50.459,53.081 53.664,53.081 53.664,50.078 50.459,50.078 			"/>
			<polyline fill="#FFFFFF" points="50.459,56.803 53.664,56.803 53.664,53.8 50.459,53.8 			"/>
			<polyline fill="#FFFFFF" points="50.459,60.526 53.664,60.526 53.664,57.522 50.459,57.522 			"/>
			<polyline fill="#FFFFFF" points="50.459,64.248 53.664,64.248 53.664,61.245 50.459,61.245 			"/>
			<polyline fill="#FFFFFF" points="50.459,67.961 53.664,67.961 53.664,64.958 50.459,64.958 			"/>
			<polyline fill="#FFFFFF" points="54.585,30.747 57.79,30.747 57.79,27.743 54.585,27.743 			"/>
			<polyline fill="#FFFFFF" points="54.585,34.469 57.79,34.469 57.79,31.466 54.585,31.466 			"/>
			<polyline fill="#FFFFFF" points="54.585,38.192 57.79,38.192 57.79,35.188 54.585,35.188 			"/>
			<polyline fill="#FFFFFF" points="54.585,41.914 57.79,41.914 57.79,38.91 54.585,38.91 			"/>
			<polyline fill="#FFFFFF" points="54.585,45.636 57.79,45.636 57.79,42.633 54.585,42.633 			"/>
			<polyline fill="#FFFFFF" points="54.585,49.359 57.79,49.359 57.79,46.355 54.585,46.355 			"/>
			<polyline fill="#FFFFFF" points="54.585,53.081 57.79,53.081 57.79,50.078 54.585,50.078 			"/>
			<polyline fill="#FFFFFF" points="54.585,56.803 57.79,56.803 57.79,53.8 54.585,53.8 			"/>
			<polyline fill="#FFFFFF" points="54.585,60.526 57.79,60.526 57.79,57.522 54.585,57.522 			"/>
			<polyline fill="#FFFFFF" points="54.585,64.248 57.79,64.248 57.79,61.245 54.585,61.245 			"/>
		</g>
		<g clip-path="url(#SVGID_1_)">
			<polyline fill="#FFFFFF" points="13.274,38.523 16.479,38.523 16.479,35.52 13.274,35.52 			"/>
			<polyline fill="#FFFFFF" points="13.274,42.245 16.479,42.245 16.479,39.242 13.274,39.242 			"/>
			<polyline fill="#FFFFFF" points="13.274,45.968 16.479,45.968 16.479,42.964 13.274,42.964 			"/>
			<polyline fill="#FFFFFF" points="13.274,49.69 16.479,49.69 16.479,46.687 13.274,46.687 			"/>
			<polyline fill="#FFFFFF" points="13.274,53.412 16.479,53.412 16.479,50.409 13.274,50.409 			"/>
			<polyline fill="#FFFFFF" points="13.274,57.135 16.479,57.135 16.479,54.131 13.274,54.131 			"/>
			<polyline fill="#FFFFFF" points="13.274,60.857 16.479,60.857 16.479,57.854 13.274,57.854 			"/>
			<polyline fill="#FFFFFF" points="13.274,64.579 16.479,64.579 16.479,61.576 13.274,61.576 			"/>
			<polyline fill="#FFFFFF" points="13.274,68.302 16.479,68.302 16.479,65.298 13.274,65.298 			"/>
			<polyline fill="#FFFFFF" points="13.274,72.024 16.479,72.024 16.479,69.021 13.274,69.021 			"/>
			<polyline fill="#FFFFFF" points="13.274,75.738 16.479,75.738 16.479,72.734 13.274,72.734 			"/>
			<polyline fill="#FFFFFF" points="17.4,38.523 20.605,38.523 20.605,35.52 17.4,35.52 			"/>
			<polyline fill="#FFFFFF" points="17.4,42.245 20.605,42.245 20.605,39.242 17.4,39.242 			"/>
			<polyline fill="#FFFFFF" points="17.4,45.968 20.605,45.968 20.605,42.964 17.4,42.964 			"/>
			<polyline fill="#FFFFFF" points="17.4,49.69 20.605,49.69 20.605,46.687 17.4,46.687 			"/>
			<polyline fill="#FFFFFF" points="17.4,53.412 20.605,53.412 20.605,50.409 17.4,50.409 			"/>
			<polyline fill="#FFFFFF" points="17.4,57.135 20.605,57.135 20.605,54.131 17.4,54.131 			"/>
			<polyline fill="#FFFFFF" points="17.4,60.857 20.605,60.857 20.605,57.854 17.4,57.854 			"/>
			<polyline fill="#FFFFFF" points="17.4,64.579 20.605,64.579 20.605,61.576 17.4,61.576 			"/>
			<polyline fill="#FFFFFF" points="17.4,68.302 20.605,68.302 20.605,65.298 17.4,65.298 			"/>
			<polyline fill="#FFFFFF" points="17.4,72.024 20.605,72.024 20.605,69.021 17.4,69.021 			"/>
		</g>
	</g>
</g>
</svg>
